<?xml version="1.0" standalone="no"?><!DOCTYPE svg PUBLIC "-//W3C//DTD SVG 1.1//EN" "http://www.w3.org/Graphics/SVG/1.1/DTD/svg11.dtd"><svg t="1507965274112" class="icon" style="" viewBox="0 0 1024 1024" version="1.1" xmlns="http://www.w3.org/2000/svg" p-id="1559" xmlns:xlink="http://www.w3.org/1999/xlink" width="80" height="80"><defs><style type="text/css"></style></defs><path d="M898.022862 0H120.540196A56.288338 56.288338 0 0 0 64.251858 56.288338v535.122993c0 30.958586 25.329752 56.288338 56.288338 56.288338h42.280218a60.126179 60.126179 0 0 0 14.263976 23.027047 13.112624 13.112624 0 0 0 6.396402 3.709913c70.48835 18.229746 87.950528 41.000937 92.108189 52.898245 4.669373 13.240552 4.349553 21.108127 4.157662 24.306328-0.703604 0.95946-0.95946 271.783122-0.959461 271.783122h30.254982s-0.63964-260.333562-0.127928-270.759698c-1.023424-20.596415-6.716222-33.900931-6.716222-33.900931-13.624336-31.02255-46.885627-52.898245-107.971267-69.336998-5.117122-6.076582-6.652258-11.065776-6.652258-15.031544v-0.063964c0-5.436942 3.390093-10.873883 9.594603-15.543257l0.511713-0.383784a44.774814 44.774814 0 0 1 7.355862-4.413518c2.558561-1.27928 5.56487-2.238741 8.507215-3.326129 4.733337-1.087388 13.112624-2.622525 26.672996-2.622525 23.602723 0 51.171216 4.605409 81.746018 13.688301 5.117122 2.302705 10.298207 4.541445 15.351365 7.291898a244.342557 244.342557 0 0 1 24.306327 14.839653l1.727029 1.023424c103.110001 72.471235 91.596477 108.99469 91.660441 108.994691a13.560372 13.560372 0 0 0 11.897308 19.828846 13.432444 13.432444 0 0 0 11.961272-7.16397c4.221625-8.059467 18.29371-48.484727-67.29015-118.653258h238.64976c-85.455931 70.104566-71.383847 110.465863-67.162222 118.461365a14.136048 14.136048 0 0 0 12.40902 7.483791c1.918921 0 4.029733-0.511712 6.012618-1.535137a13.04866 13.04866 0 0 0 5.756762-17.845961c-0.063964-0.383784-12.281092-36.971204 91.468549-109.698295a233.468674 233.468674 0 0 1 41.448685-23.218939c30.574802-8.954963 58.07933-13.624336 81.554126-13.624337 13.496408 0 21.939659 1.535136 26.545068 2.686489 2.942345 1.023424 6.076582 2.046849 8.571179 3.390093 0.511712 0.31982 0.95946 0.447748 1.471173 0.63964 2.238741 1.27928 4.413517 2.558561 6.20451 3.837842l0.31982 0.255856c6.076582 4.733337 9.530639 10.106315 9.594603 15.607221l0.127928 0.127928a24.1784 24.1784 0 0 1-6.652258 14.96758c-61.085639 16.438753-97.161347 39.849585-107.203698 69.720783-3.198201 10.042351-4.093697 12.664876-5.500906 37.099131 2.046849 5.24505 3.390093 267.177713 3.390093 267.177713h26.09732l-1.471172-271.719158c0.63964-14.839653 3.198201-23.986508 3.198201-23.986508 3.965769-11.961272 21.363983-34.860391 92.300081-53.282029a13.432444 13.432444 0 0 0 6.268474-3.709913 60.126179 60.126179 0 0 0 14.391905-23.091011 56.288338 56.288338 0 0 0 55.009057-56.288338V56.288338a56.416266 56.416266 0 0 0-56.288338-56.288338M207.339372 258.798426h120.060466c5.117122 17.909926 13.6883 63.196452-6.652259 120.380286l-1.407208 3.965769c-9.786495 27.376601-22.067587 61.469423 5.117122 131.829846 16.630645 42.983822 6.396402 67.482041-0.575677 77.844213H323.94578l-3.581985-1.407209a213.703792 213.703792 0 0 0-46.373914-11.897308c-1.27928-0.191892-2.558561-0.383784-3.837842-0.447748a186.327191 186.327191 0 0 0-19.956774-1.27928l-4.349553 0.127928a136.243363 136.243363 0 0 0-15.607221 1.151352l-3.965769 0.447748c-1.023424 0.191892-1.918921 0.447748-3.006309 0.575677 4.733337-22.323443 7.867574-55.392842-6.844151-77.460429-15.735149-23.794616-19.445062-97.097383-0.255856-152.362296 8.315323-23.666687-1.599101-66.778437-8.699106-91.468549m530.197763 256.303829c27.184709-70.48835 14.903617-104.581173 5.117122-131.957774l-1.471172-3.837841c-20.276594-57.311762-11.577488-102.598288-6.524331-120.380286h119.996502c-7.100006 24.562184-17.014429 67.609969-8.699106 91.468549 19.061278 55.392842 15.479293 128.695609-0.31982 152.42626-14.711725 22.067587-11.513524 55.136985-6.844151 77.396465l-3.198201-0.511713-2.686488-0.255856a169.12087 169.12087 0 0 0-17.526142-1.343244l-2.366669-0.127928a201.10288 201.10288 0 0 0-74.901867 15.031545c-7.036042-10.362171-17.270285-34.924355-0.639641-77.908177m189.781248 76.309076a29.423449 29.423449 0 0 1-28.144168 29.295521 44.39103 44.39103 0 0 0-8.699107-14.839652l-1.790993-1.790993-0.63964-0.63964a58.015366 58.015366 0 0 0-6.716222-5.88469l-2.366669-1.790992a75.029796 75.029796 0 0 0-6.140546-3.837842l-2.622525-1.727028-0.95946-0.383784s-0.127928 0-0.127928-0.127928c-5.117122-17.270285-12.72884-54.497345-0.95946-72.151415 22.515335-33.836967 24.050472-116.158661 3.326129-176.156912-5.56487-16.182897 3.134237-55.904554 11.321631-82.641514h5.309014a13.496408 13.496408 0 0 0 0-27.056781h-174.813667a13.432444 13.432444 0 1 0-6.140546 25.393716c-6.012618 24.050472-12.536948 71.575739 8.635143 131.062278l1.407208 4.029733c8.763071 24.370292 18.677494 52.002748-4.797302 113.024424-19.189206 49.508152-9.210819 81.682054 1.023425 98.952339-8.954963 4.733337-18.037854 10.234243-27.184709 16.438753h-310.225498l-2.686489-1.5991a266.538072 266.538072 0 0 0-24.81804-15.031545c10.234243-17.270285 20.21263-49.508152 1.023425-98.888375-23.602723-60.893747-13.6883-88.526204-4.92523-112.896496l1.535137-4.157661c21.108127-59.486539 14.647761-106.883878 8.635142-130.998314a13.432444 13.432444 0 0 0-6.076582-25.393716h-174.621775a13.496408 13.496408 0 1 0 0 26.992817H179.387095c8.187395 26.864889 16.886501 66.522581 11.321631 82.641514-20.404522 58.846899-18.805422 142.831657 3.326129 176.156912 11.705416 17.590106 4.157661 54.881129-0.95946 72.215379-0.255856 0.191892-0.767568 0.255856-1.023424 0.447748l-2.942345 1.790992a87.8226 87.8226 0 0 0-5.756762 3.581985l-2.622525 1.918921a54.113561 54.113561 0 0 0-6.396402 5.628834l-0.895496 0.895496c-0.575676 0.575676-1.27928 1.087388-1.790993 1.663065-1.599101 1.918921-2.942345 3.965769-4.285589 5.948653l-0.063964 0.191893a41.640577 41.640577 0 0 0-4.349553 8.827034h-42.280218a29.295521 29.295521 0 0 1-29.295521-29.295521V56.096446c0-16.118933 13.112624-29.295521 29.295521-29.295522h777.482666c16.118933 0 29.295521 13.176588 29.295521 29.295522l-0.127928 535.314885M480.721594 195.985758a13.496408 13.496408 0 0 0-13.496408-13.432444c-45.734274 0-84.432507-28.272097-103.110001-41.896433a119.228934 119.228934 0 0 0-10.042351-6.908115 13.560372 13.560372 0 0 0-13.752264 23.282904c1.790993 1.087388 4.477481 3.006309 7.80361 5.564869 20.980199 15.287401 64.539696 47.013555 118.973078 47.013555a13.6883 13.6883 0 0 0 13.624336-13.624336m193.299269-62.236992c-2.238741 1.407208-5.628834 3.837841-9.978387 6.908115-18.61353 13.624336-57.311762 41.832469-103.110001 41.832469a13.496408 13.496408 0 1 0 0 26.992816c54.433381 0 97.992879-31.726154 118.973078-47.013555 3.390093-2.430633 6.012618-4.477481 7.931539-5.564869a13.432444 13.432444 0 1 0-13.816229-23.154976m-68.441501 366.5778l-90.764945-40.809045a13.240552 13.240552 0 0 0-11.641452 0.31982l-80.274845 40.681117a13.432444 13.432444 0 0 0-5.948654 18.165782 13.560372 13.560372 0 0 0 18.165782 5.948654l74.518083-37.738772 84.880255 37.994628a13.36848 13.36848 0 0 0 17.845962-6.716222 13.496408 13.496408 0 0 0-6.780186-17.845962" fill="#cdcdcd" p-id="1560"></path></svg>