<svg t="1625796463100" class="icon" viewBox="0 0 1024 1024" version="1.1" xmlns="http://www.w3.org/2000/svg" p-id="701" width="64" height="64"><path d="M873.411765 421.647059m0 120.470588a120.470588 120.470588 0 1 0 0-240.941176 120.470588 120.470588 0 1 0 0 240.941176Z" fill="#8BB7F0" p-id="702"></path><path d="M740.894118 421.647059a132.517647 132.517647 0 1 0 265.035294 0 132.517647 132.517647 0 0 0-265.035294 0z m24.094117 0a108.423529 108.423529 0 1 1 216.847059 0 108.423529 108.423529 0 0 1-216.847059 0z" fill="#4E7AB6" p-id="703"></path><path d="M376.470588 225.882353a690.657882 690.657882 0 0 0 497.633883-210.823529H918.588235v783.058823h-44.513882a690.657882 690.657882 0 0 0-497.603765-210.823529z" fill="#C2E8FF" p-id="704"></path><path d="M236.242824 745.050353L301.929412 363.218824l123.934117 381.801411z" fill="#F78F8F" p-id="705"></path><path d="M236.272941 757.097412h189.620706a12.047059 12.047059 0 0 0 11.444706-15.75153l-123.934118-381.831529c-3.885176-11.956706-21.172706-10.691765-23.311059 1.686588L224.376471 743.032471a12.047059 12.047059 0 0 0 11.866353 14.064941z m14.305883-24.094118l54.964705-319.60847 103.755295 319.638588H250.578824z" fill="#C74443" p-id="706"></path><path d="M248.801882 956.235294a1526.422588 1526.422588 0 0 0-50.718117-261.993412 1532.235294 1532.235294 0 0 0-111.947294-281.20847l173.68847-49.784471a1532.235294 1532.235294 0 0 0 54.091294 297.803294 1526.422588 1526.422588 0 0 0 95.804236 249.072941 30.117647 30.117647 0 0 1-18.763295 42.164706l-103.905882 29.756236a30.117647 30.117647 0 0 1-38.249412-25.810824z" fill="#8BB7F0" p-id="707"></path><path d="M75.414588 418.575059a1520.188235 1520.188235 0 0 1 111.104 279.009882 1514.375529 1514.375529 0 0 1 50.296471 259.915294 42.164706 42.164706 0 0 0 53.579294 36.141177l103.905882-29.816471a42.164706 42.164706 0 0 0 26.262589-59.030588 1514.375529 1514.375529 0 0 1-95.081412-247.055059 1520.188235 1520.188235 0 0 1-53.609412-295.484235 12.047059 12.047059 0 0 0-15.36-10.601412L82.823529 401.468235a12.047059 12.047059 0 0 0-7.408941 17.106824z m28.03953 2.017882l145.648941-41.743059-1.264941-14.637176c8.432941 102.821647 26.593882 202.872471 54.482823 300.15247a1538.469647 1538.469647 0 0 0 96.587294 251.030589 18.070588 18.070588 0 0 1-11.264 25.298823l-103.905882 29.786353a18.070588 18.070588 0 0 1-22.949647-15.48047 1538.469647 1538.469647 0 0 0-51.109647-264.07153 1540.065882 1540.065882 0 0 0-101.195294-260.427294l-5.029647-9.908706z" fill="#4E7AB6" p-id="708"></path><path d="M15.058824 406.588235a180.705882 180.705882 0 0 1 180.705882-180.705882h180.705882v361.411765h-180.705882a180.705882 180.705882 0 0 1-180.705882-180.705883z" fill="#8BB7F0" p-id="709"></path><path d="M364.423529 225.882353v361.411765a12.047059 12.047059 0 0 0 11.926589 12.047058l13.583058 0.120471a678.369882 678.369882 0 0 1 475.497412 207.028706 12.047059 12.047059 0 0 0 8.643765 3.644235l44.513882 0.030118a12.047059 12.047059 0 0 0 12.047059-12.047059V15.058824a12.047059 12.047059 0 0 0-12.047059-12.047059h-44.483764a12.047059 12.047059 0 0 0-8.643765 3.674353A678.490353 678.490353 0 0 1 376.470588 213.835294a12.047059 12.047059 0 0 0-12.047059 12.047059z m24.094118 349.485176V237.839059l1.415529-0.030118A702.343529 702.343529 0 0 0 873.472 32.828235L879.134118 27.105882l27.407058 0.030118v758.964706L879.134118 786.070588l-5.903059-5.993412a702.343529 702.343529 0 0 0-468.841412-204.288l-15.902118-0.421647z" fill="#7496C4" p-id="710"></path><path d="M3.011765 406.588235a192.752941 192.752941 0 0 0 192.752941 192.752941h180.705882a12.047059 12.047059 0 0 0 12.047059-12.047058v-361.411765a12.047059 12.047059 0 0 0-12.047059-12.047059h-180.705882A192.752941 192.752941 0 0 0 3.011765 406.588235z m24.214588-6.625882A168.658824 168.658824 0 0 1 195.764706 237.929412H364.423529V575.247059H195.764706a168.658824 168.658824 0 0 1-168.658824-168.658824l0.120471-6.625882z" fill="#4E7AB6" p-id="711"></path></svg>